# xmcd
#
# Track frame offsets:
#	150
#	18141
#	33978
#	53001
#	69997
#	82870
#	101662
#	115850
#	134826
#	148624
#	165568
#	182340
#	199255
#	215762
#	237606
#	251037
#	267650
#
# Disc length: 3776 seconds
#
# Revision: 11
# Processed by: cddbd v1.5.2PL0 Copyright (c) Steve Scherf et al.
# Submitted via: EasyCDDAExtractor 12.0.1.1
#
DISCID=f60ebe11
DTITLE=Luis Fonsi - Paso A Paso (Deluxe Edition)
DYEAR=2006
DGENRE=Latin
TTITLE0=Nada Es Para Siempre
TTITLE1=Arropame
TTITLE2=Escondido
TTITLE3=Estoy Perdido
TTITLE4=Por Una Mujer
TTITLE5=Vivo Muriendo
TTITLE6=Me Matas
TTITLE7=Me Lo Dice El Alma
TTITLE8=Para Mi
TTITLE9=Todo Sigue Igual
TTITLE10=Paso A Paso
TTITLE11=Quiero (Previously Unreleased Track Originally Recorded For Paso A Pa
TTITLE11=so) (Bonus Track)
TTITLE12=Nada Es Para Siempre (Don Candiani Reggaeton Remix Featuring Adassa) 
TTITLE12=(Bonus Track)
TTITLE13=Nada Es Para Siempre (Salsa Version) (Bonus Track)
TTITLE14=Estoy Perdido (Don Candiani Reggaeton Remix Featuring Taino And Flaco
TTITLE14=) (Bonus Track)
TTITLE15=Estoy Perdido (Previously Unreleased Acoustic Version) (Bonus Track)
TTITLE16=Estoy Perdido (DJ Hessler In Da House Dance Remix) (Bonus Track)
EXTD=
EXTT0=
EXTT1=
EXTT2=
EXTT3=
EXTT4=
EXTT5=
EXTT6=
EXTT7=
EXTT8=
EXTT9=
EXTT10=
EXTT11=
EXTT12=
EXTT13=
EXTT14=
EXTT15=
EXTT16=
PLAYORDER=
